<svg id="visual" viewBox="0 0 900 600" width="900" height="600" xmlns="http://www.w3.org/2000/svg" xmlns:xlink="http://www.w3.org/1999/xlink" version="1.1"><rect x="0" y="0" width="900" height="600" fill="#FFFFFF"></rect><path d="M0 436L37.5 427.3C75 418.7 150 401.3 225 388.3C300 375.3 375 366.7 450 357.5C525 348.3 600 338.7 675 331.7C750 324.7 825 320.3 862.5 318.2L900 316L900 601L862.5 601C825 601 750 601 675 601C600 601 525 601 450 601C375 601 300 601 225 601C150 601 75 601 37.5 601L0 601Z" fill="#f2f2f2" stroke-linecap="round" stroke-linejoin="miter"></path></svg>