<?xml version="1.0" encoding="utf-8" ?>
<svg xmlns="http://www.w3.org/2000/svg" xmlns:xlink="http://www.w3.org/1999/xlink" width="2191" height="2191">
	<path fill="#F6F5F4" transform="scale(2.13965 2.13965)" d="M783.061 0L784.647 0C785.584 2.00326 785.678 3.06715 785.535 5.23147C784.586 19.589 785.516 34.2453 785.521 48.6468L785.269 134.74C785.276 152.567 786.02 170.73 785.036 188.52L783.562 188.202C782.207 166.722 783.328 144.715 783.315 123.164L782.92 6.10686L782.976 3.79132L783.061 0Z"/>
	<path fill="#DBAD55" transform="scale(2.13965 2.13965)" d="M638.819 179.224C641.477 167.638 648.189 154.484 653.293 143.578Q655.31 139.371 657.451 135.225Q659.591 131.079 661.852 126.998Q664.113 122.917 666.493 118.904Q668.873 114.891 671.369 110.949Q673.866 107.008 676.477 103.141Q679.089 99.2747 681.813 95.4866Q684.536 91.6985 687.37 87.9921Q690.204 84.2856 693.146 80.664Q696.087 77.0423 699.134 73.5086Q702.181 69.9749 705.33 66.5322Q708.479 63.0895 711.727 59.7408Q714.976 56.392 718.322 53.1402Q721.668 49.8883 725.108 46.7361Q728.547 43.5838 732.078 40.534Q735.609 37.4842 739.228 34.5393Q742.847 31.5945 746.551 28.7572C758.322 19.7374 770.867 12.2623 782.976 3.79132L782.92 6.10686C770.092 12.8369 758.939 21.1836 747.656 30.191C714.823 56.4 686.692 87.0505 667.106 124.481Q658.22 141.739 650.888 159.712C648.157 166.316 645.743 173.258 642.656 179.69L638.819 179.224Z"/>
	<path fill="#75BD3D" transform="scale(2.13965 2.13965)" d="M638.819 179.224L642.656 179.69C632.249 203.422 623.802 228.281 614.788 252.578Q591.321 314.738 569.384 377.454L544.191 447.906C539.236 461.484 533.63 474.882 529.487 488.738C527.025 488.958 524.761 489.219 522.375 489.927C522.223 488.419 522.009 487.083 521.573 485.63Q521.609 484.776 521.589 483.922C521.493 480.827 520.349 478.856 518.12 476.794L519.051 476.661C522.027 473.902 534.433 440.546 536.41 435.324C537.394 433.33 538.106 431.073 538.926 428.997Q547.75 407.16 556.301 385.215C560.165 375.466 564.355 365.803 567.858 355.919C569.017 353.739 569.78 351.236 570.663 348.924C576.801 334.865 582.005 320.183 587.656 305.91L613.615 241.961L631.402 197.881C633.806 191.9 637.273 185.438 638.819 179.224Z"/>
	<path fill="#75BD3D" transform="scale(2.13965 2.13965)" d="M783.562 188.202L785.036 188.52C791.101 189.057 796.987 191.923 800.981 196.531C807.287 203.806 807.721 212.193 807.414 221.263C806.746 232.437 806.845 243.813 807.015 255.006L807.905 255.028C815.625 255.171 828.205 250.654 834.153 256.998C835.814 258.77 836.26 261.091 836.084 263.449C835.851 266.564 834.872 268.987 833.57 271.761C839.898 278.68 844.28 288.209 848.846 296.368Q855.145 307.531 861.603 318.603C864.079 322.874 866.517 328.121 869.839 331.773C873.896 338.443 877.293 344.13 875.259 352.302C874.28 356.238 872.06 359.642 868.458 361.62C866.129 362.898 863.434 363.904 860.759 364.034C851.578 363.324 842.248 363.491 833.039 363.455L792.133 363.415C764.473 363.482 736.617 362.813 708.991 364.074C704.962 364.165 701.119 363.224 697.833 360.828C693.964 358.008 691.569 353.635 690.832 348.938C690.028 343.806 691.729 339.228 694.717 335.118C700.375 328.138 704.939 319.365 709.691 311.718C717.953 298.42 726.5 285.215 734.366 271.681C733.569 267.637 733.006 263.631 734.106 259.573C737.448 247.243 752.538 258.313 759.61 254.445C762.647 250.712 760.509 221.179 760.456 214.47C760.613 209.521 760.792 204.892 763.346 200.465C767.764 192.807 775.61 190.381 783.562 188.202ZM742.142 281.435L741.061 284.374L739.232 283.701L738.662 284.213C738.16 293.557 739.465 303.334 739.82 312.715C740.189 322.502 739.837 332.315 740.084 342.108C750.321 331.258 756.879 322.989 768.843 313.648L771.166 315.856C765.89 321.679 760.58 327.463 754.929 332.928C750.62 337.096 745.783 340.975 741.865 345.504Q782.44 346.369 823.018 345.677C813.552 336.417 803.484 327.42 794.511 317.704Q788.316 323.05 783.089 329.346L777.973 323.79C779.829 322.975 781.685 322.232 783.367 321.086C798.534 306.167 814.026 291.517 829.069 276.493L769.794 276.361C759.445 276.365 748.8 275.985 738.49 276.902C739.602 278.489 740.898 279.951 742.142 281.435ZM782.696 203.445C779.371 205.419 776.875 207.272 775.793 211.194C775.2 213.342 775.321 215.673 776.549 217.581C777.812 219.543 779.951 220.774 782.221 221.186C783.141 221.353 784.084 221.421 785.015 221.49C788.055 220.088 790.294 218.561 791.446 215.272C792.309 212.807 792.271 210.081 791.001 207.757C789.952 205.839 787.957 204.252 785.817 203.748C784.81 203.51 783.727 203.475 782.696 203.445ZM826.831 283.917C817.016 294.06 806.889 303.841 797.015 313.905C802.312 319.1 807.709 324.228 812.844 329.582C817.486 334.555 822.125 339.49 827.03 344.205Q827.393 324.058 827.536 303.909C827.593 298.694 828.233 293.201 827.885 288.018C827.797 286.711 827.712 284.97 826.831 283.917Z"/>
	<path fill="#202000" transform="scale(2.13965 2.13965)" d="M785.015 221.49C784.084 221.421 783.141 221.353 782.221 221.186C779.951 220.774 777.812 219.543 776.549 217.581C775.321 215.673 775.2 213.342 775.793 211.194C776.875 207.272 779.371 205.419 782.696 203.445C783.727 203.475 784.81 203.51 785.817 203.748C787.957 204.252 789.952 205.839 791.001 207.757C792.271 210.081 792.309 212.807 791.446 215.272C790.294 218.561 788.055 220.088 785.015 221.49Z"/>
	<defs>
		<linearGradient id="gradient_0" gradientUnits="userSpaceOnUse" x1="738.43127" y1="283.36945" x2="706.86536" y2="261.82538">
			<stop offset="0" stop-color="#5C6D25"/>
			<stop offset="1" stop-color="#384419"/>
		</linearGradient>
	</defs>
	<path fill="url(#gradient_0)" transform="scale(2.13965 2.13965)" d="M759.564 221.246L760.456 214.47C760.509 221.179 762.647 250.712 759.61 254.445C752.538 258.313 737.448 247.243 734.106 259.573C733.006 263.631 733.569 267.637 734.366 271.681C726.5 285.215 717.953 298.42 709.691 311.718C704.939 319.365 700.375 328.138 694.717 335.118C695.137 334.147 695.656 333.066 695.66 331.988C695.684 326.439 692.263 317.227 691.663 310.692C689.739 289.727 702.846 264.006 715.845 248.357C726.512 235.518 742.388 222.882 759.564 221.246Z"/>
	<defs>
		<linearGradient id="gradient_1" gradientUnits="userSpaceOnUse" x1="861.83667" y1="259.74741" x2="827.14581" y2="282.91605">
			<stop offset="0" stop-color="#38441A"/>
			<stop offset="1" stop-color="#536521"/>
		</linearGradient>
	</defs>
	<path fill="url(#gradient_1)" transform="scale(2.13965 2.13965)" d="M807.414 221.263C829.468 226.018 849.793 238.917 862.037 258.09C872.014 273.712 878.249 296.244 874.149 314.651C873.004 319.789 868.982 326.648 869.839 331.773C866.517 328.121 864.079 322.874 861.603 318.603Q855.145 307.531 848.846 296.368C844.28 288.209 839.898 278.68 833.57 271.761C834.872 268.987 835.851 266.564 836.084 263.449C836.26 261.091 835.814 258.77 834.153 256.998C828.205 250.654 815.625 255.171 807.905 255.028L807.015 255.006C806.845 243.813 806.746 232.437 807.414 221.263Z"/>
	<path fill="#6A554D" transform="scale(2.13965 2.13965)" d="M287.196 274.718C291.737 271.888 295.68 265.927 301.291 265.14C307.367 265.956 313.596 267.057 319.507 268.705C323.365 274.841 325.335 281.939 328.977 288.209C332.835 294.851 338.436 300.585 342.805 306.913C339.986 306.847 337.1 306.625 334.303 307.027C324.401 306.941 314.108 306.521 304.263 305.453C301.209 308.839 299.265 312.287 297.976 316.658C295.68 324.45 295.691 333.28 295.075 341.356C294.202 352.802 293.358 364.211 291.667 375.572C288.872 373.533 286.247 371.147 283.587 368.929C284.212 364.709 284.553 360.414 285.014 356.171C285.041 354.95 285.049 353.688 284.906 352.472C284.634 350.144 283.263 347.889 281.409 346.47C277.037 343.123 270.911 343.971 265.866 344.807C261.439 330.758 258.676 315.732 255.977 301.256C265.394 291.617 277.127 283.779 287.196 274.718Z"/>
	<defs>
		<linearGradient id="gradient_2" gradientUnits="userSpaceOnUse" x1="334.07062" y1="295.64209" x2="380.8298" y2="268.62744">
			<stop offset="0" stop-color="#8A817E"/>
			<stop offset="1" stop-color="#B0B0B0"/>
		</linearGradient>
	</defs>
	<path fill="url(#gradient_2)" transform="scale(2.13965 2.13965)" d="M319.507 268.705Q344.18 273.196 368.696 278.473C376.436 280.153 384.462 281.583 392.022 283.913C388.418 288.914 375.089 306.675 370.717 309.031C364.826 306.639 342.66 307.967 334.303 307.027C337.1 306.625 339.986 306.847 342.805 306.913C338.436 300.585 332.835 294.851 328.977 288.209C325.335 281.939 323.365 274.841 319.507 268.705Z"/>
	<path fill="#F6F5F4" transform="scale(2.13965 2.13965)" d="M742.142 281.435C740.898 279.951 739.602 278.489 738.49 276.902C748.8 275.985 759.445 276.365 769.794 276.361L829.069 276.493C814.026 291.517 798.534 306.167 783.367 321.086Q773.803 310.43 763.483 300.504Q753.162 290.577 742.142 281.435Z"/>
	<path fill="#838D4E" transform="scale(2.13965 2.13965)" d="M741.061 284.374L742.142 281.435Q753.162 290.577 763.483 300.504Q773.803 310.43 783.367 321.086C781.685 322.232 779.829 322.975 777.973 323.79C775.5 321.5 773.343 318.45 771.166 315.856L768.843 313.648Q754.815 299.141 741.061 284.374Z"/>
	<path fill="#F6F5F4" transform="scale(2.13965 2.13965)" d="M740.084 342.108C739.837 332.315 740.189 322.502 739.82 312.715C739.465 303.334 738.16 293.557 738.662 284.213L739.232 283.701L741.061 284.374Q754.815 299.141 768.843 313.648C756.879 322.989 750.321 331.258 740.084 342.108Z"/>
	<path fill="#F6F5F4" transform="scale(2.13965 2.13965)" d="M797.015 313.905C806.889 303.841 817.016 294.06 826.831 283.917C827.712 284.97 827.797 286.711 827.885 288.018C828.233 293.201 827.593 298.694 827.536 303.909Q827.393 324.058 827.03 344.205C822.125 339.49 817.486 334.555 812.844 329.582C807.709 324.228 802.312 319.1 797.015 313.905Z"/>
	<defs>
		<linearGradient id="gradient_3" gradientUnits="userSpaceOnUse" x1="294.54099" y1="408.06839" x2="379.77618" y2="319.92007">
			<stop offset="0" stop-color="#F1AA41"/>
			<stop offset="1" stop-color="#F6DA60"/>
		</linearGradient>
	</defs>
	<path fill="url(#gradient_3)" transform="scale(2.13965 2.13965)" d="M304.263 305.453C314.108 306.521 324.401 306.941 334.303 307.027C342.66 307.967 364.826 306.639 370.717 309.031C370.192 315.372 370.364 331.373 373.042 337.089C372.073 338.186 371.25 338.413 369.888 338.86C364.696 340.563 360.348 343.417 355.986 346.63C352.796 347.612 349.556 348.478 346.595 350.05L345.935 350.144C343.523 345.798 340.74 341.95 335.718 340.455C331.758 339.276 326.707 339.895 323.098 341.876Q322.604 342.144 322.138 342.46Q321.673 342.776 321.241 343.136Q320.809 343.496 320.415 343.898Q320.021 344.299 319.669 344.737Q319.316 345.176 319.009 345.647Q318.702 346.118 318.443 346.617Q318.184 347.117 317.976 347.639Q317.767 348.161 317.612 348.702C316.648 352.062 317.29 355.731 319.021 358.731C320.962 362.097 324.097 364.584 327.927 365.397C331.958 366.253 335.935 364.935 339.269 362.675C340.306 361.972 341.253 361.222 342.173 360.376C343.965 366.537 343.653 373.529 344.683 379.895C345.281 383.586 347.916 389.634 347.279 393.093C345.345 395.196 342.889 395.446 340.148 395.545C328.86 395.953 318.477 394.511 308.208 389.729C318.84 398.755 325.807 403.247 340.443 402.09Q347.735 401.472 354.974 400.394C354.966 403.56 354.755 406.889 355.067 410.031C354.807 419.444 353.413 428.801 353.39 438.22L352.611 441.273C347.72 442.307 340.925 440.437 336.182 439.107C319.16 434.33 305.509 422.215 296.046 407.568C293.13 403.054 290.801 398.19 288.01 393.608C285.684 389.79 282.167 386.906 279.932 382.963L279.94 373.305L283.46 370.071C284.685 371.354 285.917 372.618 287.272 373.766C288.725 374.996 289.726 375.75 291.667 375.572C293.358 364.211 294.202 352.802 295.075 341.356C295.691 333.28 295.68 324.45 297.976 316.658C299.265 312.287 301.209 308.839 304.263 305.453ZM329.586 324.652C324.329 325.61 312.519 327.448 309.473 332.45C309.089 333.08 309.104 333.167 308.935 333.79C309.347 334.765 309.067 334.642 309.923 335.007C311.777 335.798 313.518 335.376 315.38 334.859C319.86 334.088 331.927 333.655 334.525 329.538C335.167 328.521 335.264 327.385 334.887 326.25C334.546 325.224 333.778 324.721 332.747 324.521C331.866 324.35 330.487 324.522 329.586 324.652ZM341.637 324.404C341.784 326.669 341.597 328.876 343.439 330.514C347.184 333.843 356.468 333.813 361.4 334.606C361.465 332.519 361.44 331.008 359.917 329.388C356.034 325.257 347.022 324.561 341.637 324.404Z"/>
	<path fill="#F6F5F4" transform="scale(2.13965 2.13965)" d="M771.166 315.856C773.343 318.45 775.5 321.5 777.973 323.79L783.089 329.346Q788.316 323.05 794.511 317.704C803.484 327.42 813.552 336.417 823.018 345.677Q782.44 346.369 741.865 345.504C745.783 340.975 750.62 337.096 754.929 332.928C760.58 327.463 765.89 321.679 771.166 315.856Z"/>
	<path fill="#752A24" transform="scale(2.13965 2.13965)" d="M315.38 334.859C313.518 335.376 311.777 335.798 309.923 335.007C309.067 334.642 309.347 334.765 308.935 333.79C309.104 333.167 309.089 333.08 309.473 332.45C312.519 327.448 324.329 325.61 329.586 324.652C330.487 324.522 331.866 324.35 332.747 324.521C333.778 324.721 334.546 325.224 334.887 326.25C335.264 327.385 335.167 328.521 334.525 329.538C331.927 333.655 319.86 334.088 315.38 334.859Z"/>
	<path fill="#202000" transform="scale(2.13965 2.13965)" d="M361.4 334.606C356.468 333.813 347.184 333.843 343.439 330.514C341.597 328.876 341.784 326.669 341.637 324.404C347.022 324.561 356.034 325.257 359.917 329.388C361.44 331.008 361.465 332.519 361.4 334.606Z"/>
	<path fill="#0275DC" transform="scale(2.13965 2.13965)" d="M373.042 337.089C376.289 336.982 379.505 338.092 381.921 340.307C384.663 342.82 386.134 346.554 386.177 350.242Q386.181 350.976 386.111 351.707Q386.041 352.438 385.899 353.158Q385.756 353.878 385.542 354.58Q385.327 355.283 385.044 355.96Q384.76 356.637 384.41 357.282Q384.06 357.927 383.646 358.534Q383.233 359.141 382.761 359.704Q382.289 360.266 381.763 360.778C379.134 363.354 375.795 363.887 372.754 365.619C360.539 364.269 362.075 356.341 353.489 354.02C354.555 351.569 355.305 349.205 355.986 346.63C360.348 343.417 364.696 340.563 369.888 338.86C371.25 338.413 372.073 338.186 373.042 337.089ZM366.998 345.519C364.4 346.893 362.724 348.399 361.779 351.259Q361.668 351.592 361.592 351.934Q361.516 352.276 361.476 352.625Q361.437 352.973 361.433 353.324Q361.43 353.674 361.464 354.023Q361.497 354.372 361.567 354.716Q361.637 355.06 361.743 355.394Q361.848 355.729 361.988 356.05Q362.127 356.372 362.3 356.677C363.222 358.292 364.849 359.575 366.671 359.993C368.545 360.422 370.469 360.076 372.332 359.773C374.351 358.581 376.512 357.437 377.237 355.039C377.777 353.255 377.421 351.277 376.439 349.716C375.205 347.751 372.741 345.899 370.415 345.542C369.284 345.369 368.133 345.432 366.998 345.519Z"/>
	<path fill="#0275DC" transform="scale(2.13965 2.13965)" d="M342.173 360.376C341.253 361.222 340.306 361.972 339.269 362.675C335.935 364.935 331.958 366.253 327.927 365.397C324.097 364.584 320.962 362.097 319.021 358.731C317.29 355.731 316.648 352.062 317.612 348.702Q317.767 348.161 317.976 347.639Q318.184 347.117 318.443 346.617Q318.702 346.118 319.009 345.647Q319.316 345.176 319.669 344.737Q320.021 344.299 320.415 343.898Q320.809 343.496 321.241 343.136Q321.673 342.776 322.138 342.46Q322.604 342.144 323.098 341.876C326.707 339.895 331.758 339.276 335.718 340.455C340.74 341.95 343.523 345.798 345.935 350.144C344.946 353.428 343.946 356.632 342.601 359.791L342.173 360.376ZM327.214 345.502C324.994 346.986 323.199 348.195 322.634 350.949C322.224 352.949 322.472 355.204 323.609 356.932C324.71 358.607 326.462 359.542 328.408 359.866C329.769 360.093 331.039 359.908 332.35 359.541C334.638 357.93 336.671 356.476 337.155 353.544C337.43 351.878 337.046 350.19 336.025 348.838C334.672 347.047 332.212 345.798 330.001 345.539C329.084 345.431 328.135 345.471 327.214 345.502Z"/>
	<path fill="#DBAD55" transform="scale(2.13965 2.13965)" d="M263.539 363.287C262.671 362.498 261.831 361.698 261.129 360.753C259.49 358.546 258.466 356.142 258.954 353.351C259.641 349.433 262.774 346.928 265.866 344.807C270.911 343.971 277.037 343.123 281.409 346.47C283.263 347.889 284.634 350.144 284.906 352.472C285.049 353.688 285.041 354.95 285.014 356.171C282.299 353.78 278.309 349.67 274.329 350.086C271.913 350.338 270.366 351.733 268.984 353.618C266.772 356.635 265.687 360.283 263.539 363.287Z"/>
	<path fill="#F6F5F4" transform="scale(2.13965 2.13965)" d="M332.35 359.541C331.039 359.908 329.769 360.093 328.408 359.866C326.462 359.542 324.71 358.607 323.609 356.932C322.472 355.204 322.224 352.949 322.634 350.949C323.199 348.195 324.994 346.986 327.214 345.502C328.135 345.471 329.084 345.431 330.001 345.539C332.212 345.798 334.672 347.047 336.025 348.838C337.046 350.19 337.43 351.878 337.155 353.544C336.671 356.476 334.638 357.93 332.35 359.541Z"/>
	<path fill="#F6F5F4" transform="scale(2.13965 2.13965)" d="M372.332 359.773C370.469 360.076 368.545 360.422 366.671 359.993C364.849 359.575 363.222 358.292 362.3 356.677Q362.127 356.372 361.988 356.05Q361.848 355.729 361.743 355.394Q361.637 355.06 361.567 354.716Q361.497 354.372 361.464 354.023Q361.43 353.674 361.433 353.324Q361.437 352.973 361.476 352.625Q361.516 352.276 361.592 351.934Q361.668 351.592 361.779 351.259C362.724 348.399 364.4 346.893 366.998 345.519C368.133 345.432 369.284 345.369 370.415 345.542C372.741 345.899 375.205 347.751 376.439 349.716C377.421 351.277 377.777 353.255 377.237 355.039C376.512 357.437 374.351 358.581 372.332 359.773Z"/>
	<path fill="#00376C" transform="scale(2.13965 2.13965)" d="M346.595 350.05C349.556 348.478 352.796 347.612 355.986 346.63C355.305 349.205 354.555 351.569 353.489 354.02C352.104 353.882 350.944 353.524 349.673 352.941C348.306 352.313 347.123 351.506 346.595 350.05Z"/>
	<path fill="#ED7F28" transform="scale(2.13965 2.13965)" d="M263.539 363.287C265.687 360.283 266.772 356.635 268.984 353.618C270.366 351.733 271.913 350.338 274.329 350.086C278.309 349.67 282.299 353.78 285.014 356.171C284.553 360.414 284.212 364.709 283.587 368.929C286.247 371.147 288.872 373.533 291.667 375.572C289.726 375.75 288.725 374.996 287.272 373.766C285.917 372.618 284.685 371.354 283.46 370.071L279.94 373.305L279.932 382.963C282.167 386.906 285.684 389.79 288.01 393.608C290.801 398.19 293.13 403.054 296.046 407.568C305.509 422.215 319.16 434.33 336.182 439.107C340.925 440.437 347.72 442.307 352.611 441.273L353.39 438.22L353.392 438.628C353.392 438.854 353.386 439.081 353.387 439.307C353.393 441.047 353.532 442.096 352.495 443.616C351.486 444.259 350.673 444.663 349.444 444.643C346.543 444.596 343.355 443.861 340.479 443.386C321.098 440.185 306.289 430.467 292.729 416.575C289.03 410.383 271.827 396.543 265.21 392.718C264.011 391.68 263.467 389.871 262.855 388.437C267.724 382.895 269.084 373.87 270.391 366.84C268.201 365.517 265.825 364.438 263.539 363.287ZM273.112 354.642C272.964 357.725 272.869 360.797 272.355 363.845C274.321 367.279 275.974 369.011 279.714 370.407C280.552 366.569 280.818 363.186 280.444 359.238C278.013 356.706 276.471 355.615 273.112 354.642Z"/>
	<path fill="#DBAD55" transform="scale(2.13965 2.13965)" d="M345.935 350.144L346.595 350.05C347.123 351.506 348.306 352.313 349.673 352.941C350.944 353.524 352.104 353.882 353.489 354.02C362.075 356.341 360.539 364.269 372.754 365.619C373.152 371.293 373.258 377.151 374.401 382.73C375.585 388.515 377.666 394.159 378.573 399.987C364.322 394.211 351.862 364.548 342.601 359.791C343.946 356.632 344.946 353.428 345.935 350.144Z"/>
	<path fill="#EE6557" transform="scale(2.13965 2.13965)" d="M272.355 363.845C272.869 360.797 272.964 357.725 273.112 354.642C276.471 355.615 278.013 356.706 280.444 359.238C280.818 363.186 280.552 366.569 279.714 370.407C275.974 369.011 274.321 367.279 272.355 363.845Z"/>
	<path fill="#ED7F28" transform="scale(2.13965 2.13965)" d="M342.173 360.376L342.601 359.791C351.862 364.548 364.322 394.211 378.573 399.987C370.899 400.086 363.185 400.038 355.524 400.494C355.467 403.661 355.564 406.899 355.067 410.031C354.755 406.889 354.966 403.56 354.974 400.394Q347.735 401.472 340.443 402.09C325.807 403.247 318.84 398.755 308.208 389.729C318.477 394.511 328.86 395.953 340.148 395.545C342.889 395.446 345.345 395.196 347.279 393.093C347.916 389.634 345.281 383.586 344.683 379.895C343.653 373.529 343.965 366.537 342.173 360.376Z"/>
	<defs>
		<linearGradient id="gradient_4" gradientUnits="userSpaceOnUse" x1="786.25629" y1="391.8031" x2="787.66174" y2="361.51465">
			<stop offset="0" stop-color="#364316"/>
			<stop offset="1" stop-color="#526621"/>
		</linearGradient>
	</defs>
	<path fill="url(#gradient_4)" transform="scale(2.13965 2.13965)" d="M708.991 364.074C736.617 362.813 764.473 363.482 792.133 363.415L833.039 363.455C842.248 363.491 851.578 363.324 860.759 364.034C858.653 364.512 856.364 364.555 854.211 364.741C852.706 366.895 851.222 369.141 849.505 371.132C838.142 384.301 816.97 391.687 800.064 392.814C779.92 394.156 759.264 388.585 741.454 379.359C738.369 377.762 734.942 376.141 732.138 374.097C728.427 371.391 725.124 367.724 721.657 364.668C717.473 364.255 713.197 364.328 708.991 364.074Z"/>
	<path fill="#914B21" transform="scale(2.13965 2.13965)" d="M297.603 744.892C310.37 747.68 324.41 748.818 337.45 749.598Q334.681 760.483 332.385 771.477C307.006 770.315 281.418 771.303 256.005 771.016C249.669 770.945 243.37 770.291 237.045 770.196C227.846 770.059 218.604 770.514 209.391 770.457Q166.493 769.847 123.604 770.905C120.931 748.705 120.165 726.127 117.94 703.848Q109.158 609.834 95.8245 516.357C90.8692 481.755 83.888 447.696 77.1889 413.409C75.7436 406.012 72.826 398.138 71.7274 391.404C71.067 387.356 71.5409 383.423 74.0828 380.059C75.6101 378.038 77.5064 377.125 79.9916 376.831C83.8952 376.368 87.5765 377.47 90.5724 380.018C93.0674 382.139 94.8802 384.943 96.1539 387.939C99.6091 396.065 102.504 414.834 104.566 424.47Q114.948 471.629 121.805 519.428C125 541.374 127.361 563.421 130.257 585.405Q137.563 638.065 142.507 690.999C144.288 709.149 146.179 727.36 147.252 745.565L245.886 745.435L277.36 745.455C284.021 745.455 290.996 745.79 297.603 744.892Z"/>
	<path fill="#DBAD55" transform="scale(2.13965 2.13965)" d="M245.865 402.201C253.032 399.14 257.567 393.91 262.855 388.437C263.467 389.871 264.011 391.68 265.21 392.718C271.806 401.195 284.027 414.741 287.176 424.618L287.934 427.592C284.967 431.57 282.611 436.094 280.117 440.381C263.964 429.892 253.967 419.678 245.865 402.201Z"/>
	<path fill="#914B21" transform="scale(2.13965 2.13965)" d="M265.21 392.718C271.827 396.543 289.03 410.383 292.729 416.575C290.493 418.758 288.711 421.902 287.176 424.618C284.027 414.741 271.806 401.195 265.21 392.718Z"/>
	<path fill="#F6F5F4" transform="scale(2.13965 2.13965)" d="M240.565 405.113C242.181 403.991 244.125 403.134 245.865 402.201C253.967 419.678 263.964 429.892 280.117 440.381C282.611 436.094 284.967 431.57 287.934 427.592C289.611 431.945 291.373 436.173 293.377 440.388L293.479 440.926C294.759 447.483 297.47 453.665 296.577 460.48C292.506 459.219 289.836 456.424 286.761 453.612C283.9 450.193 281.464 446.62 279.06 442.869C275.779 446.157 272.569 449.532 268.881 452.37C263.588 456.28 258.307 460.323 253.797 465.138C247.273 461.517 231.274 434.707 228.092 427.055C229.23 423.399 230.888 420.055 232.694 416.694C235.59 413.243 238.26 408.984 240.565 405.113Z"/>
	<path fill="#7DC965" transform="scale(2.13965 2.13965)" d="M229.035 410.348C232.836 408.47 236.642 406.72 240.565 405.113C238.26 408.984 235.59 413.243 232.694 416.694C230.823 414.593 230.043 412.972 229.035 410.348Z"/>
	<path fill="#75BD3D" transform="scale(2.13965 2.13965)" d="M160.286 646.326C148.481 602.475 148.004 531.044 160.983 487.57C172.179 450.07 195.673 428.275 229.035 410.348C230.043 412.972 230.823 414.593 232.694 416.694C230.888 420.055 229.23 423.399 228.092 427.055C231.274 434.707 247.273 461.517 253.797 465.138C260.345 469.005 266.969 483.001 273.882 489.608C276.148 494.358 279.208 498.036 282.663 501.978C285.941 497.103 288.217 492.578 288.805 486.634C292.872 479.796 292.787 471.473 295.615 464.18L296.577 460.48C297.47 453.665 294.759 447.483 293.479 440.926L293.377 440.388C309.925 461.238 321.56 485.735 336.534 507.737C342.801 516.945 349.475 525.842 357.032 534.038C361.48 538.863 366.573 543.316 370.803 548.301C370.181 548.259 369.603 548.217 368.998 548.055C363.932 546.693 358.989 542.131 355.093 538.769C334.372 520.881 320.234 498.83 307.106 475.095C306.475 493.974 302.025 519.446 298.167 538.09C295.038 552.539 292.98 567.185 289.29 581.517C289.182 581.428 289.072 581.341 288.966 581.249C281.602 574.951 273.998 562.053 267.997 554.037C252.107 532.809 235.603 511.929 220.798 489.916C218.618 486.675 215.974 482.759 214.698 479.078L214.085 479.007C214.543 482.12 217.777 486.955 219.217 489.9C230.443 512.862 261.39 566.302 281.043 580.972C283.09 582.5 286.108 584.515 288.837 583.984C289.029 583.947 289.21 583.868 289.397 583.81C306.884 579.353 324.304 578.875 342.219 578.444C346.068 578.666 349.919 578.232 353.752 577.906C355.621 588.473 358.112 598.825 360.763 609.219C353.315 610.609 345.886 612.339 338.418 613.569C333.534 613.764 328.465 614.933 323.627 615.703C310.341 617.818 295.992 620.563 282.518 619.918C277.373 619.265 272.34 618.901 267.557 616.687C253.423 610.147 235.495 586.508 225.902 574.121C209.058 552.37 187.983 523.545 179.096 497.374C178.552 546.005 207.19 594.931 240.492 628.734C247.164 635.506 255.205 641.564 263.108 646.858C267.03 649.486 271.763 651.937 275.269 655.063C276.356 656.033 276.757 657.092 277.125 658.468C257.06 662.54 232.439 663.283 211.834 663.666C210.137 662.943 210.337 661.339 208.485 660.421C203.249 660.722 203.93 659.288 200.145 656.788C193.8 652.596 174.306 645.733 166.836 645.328C164.628 645.209 162.418 645.815 160.286 646.326Z"/>
	<path fill="#00376C" transform="scale(2.13965 2.13965)" d="M268.881 452.37C272.569 449.532 275.779 446.157 279.06 442.869C281.464 446.62 283.9 450.193 286.761 453.612C285.017 455.517 282.761 457.528 281.515 459.786Q285.274 473.179 288.805 486.634C288.217 492.578 285.941 497.103 282.663 501.978C279.208 498.036 276.148 494.358 273.882 489.608Q274.883 475.459 276.701 461.392C273.572 458.632 270.977 456.036 268.881 452.37Z"/>
	<path fill="#BDBDBD" transform="scale(2.13965 2.13965)" d="M253.797 465.138C258.307 460.323 263.588 456.28 268.881 452.37C270.977 456.036 273.572 458.632 276.701 461.392Q274.883 475.459 273.882 489.608C266.969 483.001 260.345 469.005 253.797 465.138Z"/>
	<path fill="#7DC965" transform="scale(2.13965 2.13965)" d="M286.761 453.612C289.836 456.424 292.506 459.219 296.577 460.48L295.615 464.18C290.943 461.984 286.598 460.643 281.515 459.786C282.761 457.528 285.017 455.517 286.761 453.612Z"/>
	<path fill="#BDBDBD" transform="scale(2.13965 2.13965)" d="M281.515 459.786C286.598 460.643 290.943 461.984 295.615 464.18C292.787 471.473 292.872 479.796 288.805 486.634Q285.274 473.179 281.515 459.786Z"/>
	<path fill="#75BD3D" transform="scale(2.13965 2.13965)" d="M772.984 469.128C742.796 468.722 712.571 469.035 682.379 469.059C666.408 469.072 650.225 469.698 634.299 468.494L619.823 541.449C617.682 552.352 614.345 563.84 613.851 574.957C626.384 574.905 638.934 574.656 651.464 574.766C672.222 574.947 693.116 575.509 713.867 574.921L714.679 575.073C714.862 577.246 715.068 579.409 715.089 581.592L715.286 591.941L695.197 592.023Q679.489 591.935 663.782 592.101C644.077 591.92 624.312 592.459 604.599 592.567C608.348 577.168 610.48 561.363 613.362 545.788L629.25 463.492Q659.325 462.977 689.404 462.979Q717.968 462.527 746.535 462.671C751.016 462.728 755.503 462.867 759.983 462.706C764.164 462.556 768.955 461.761 773.064 462.312C774.009 462.438 774.321 462.433 774.914 463.204C774.883 465.22 773.749 467.285 772.984 469.128Z"/>
	<path fill="#355023" transform="scale(2.13965 2.13965)" d="M634.299 468.494C650.225 469.698 666.408 469.072 682.379 469.059C712.571 469.035 742.796 468.722 772.984 469.128C768.576 487.878 765.284 506.95 761.086 525.768C759.423 533.223 758.023 541.35 755.495 548.538Q751.019 548.649 746.548 548.88C748.204 534.743 752.006 521.354 755.025 507.491C757.114 497.902 758.433 488.029 760.772 478.516L642.789 478.486L633.529 526.291C631.631 536.223 630.289 546.461 627.155 556.094C625.388 561.528 622.869 566.534 620.07 571.497Q647.979 571.507 675.884 571.073C688.036 570.907 700.303 570.226 712.437 571.054C712.827 572.441 713.091 573.691 713.867 574.921C693.116 575.509 672.222 574.947 651.464 574.766C638.934 574.656 626.384 574.905 613.851 574.957C614.345 563.84 617.682 552.352 619.823 541.449L634.299 468.494Z"/>
	<path fill="#DBAD55" transform="scale(2.13965 2.13965)" d="M508.181 476.24C511.858 475.646 514.515 475.585 518.12 476.794C520.349 478.856 521.493 480.827 521.589 483.922Q521.609 484.776 521.573 485.63C520.356 486.746 519.108 488.099 517.658 488.886C515.415 488.38 512.689 487.5 510.529 488.662C509.942 488.978 509.457 489.665 509.25 490.291C508.915 491.308 509.196 492.549 509.42 493.556C508.924 496.026 508.3 497.749 506.154 499.232C504.326 500.496 501.915 501.19 499.799 501.817C497.634 500.456 495.976 498.82 494.189 497.021C487.468 507.732 483.127 510.625 471.353 514.74C475.636 514.354 479.784 513.895 483.968 512.849C487.584 511.945 491.374 510.545 495.047 510.034C496.276 513.657 497.669 518.957 495.91 522.592C495.038 524.396 493.428 525.391 491.53 525.888C484.304 527.781 471.025 525.01 463.111 525.108C460.387 521.52 457.381 517.686 455.526 513.57C469.669 506.727 478.912 492.679 491.312 483.414C496.601 479.814 501.966 477.685 508.181 476.24Z"/>
	<path fill="#355023" transform="scale(2.13965 2.13965)" d="M370.803 548.301C377.105 549.69 423.568 527.291 431.503 523.085C435.154 532.144 440.06 544.683 447.219 551.395C440.566 556.886 433.009 560.632 425.908 565.415Q420.082 564.431 414.185 564.071Q408.288 563.711 402.386 563.98C393.068 569.554 385.292 577.368 375.686 582.467L373.796 575.691L353.752 577.906C349.919 578.232 346.068 578.666 342.219 578.444C338.674 575.214 333.905 572.517 330.008 569.636C318.283 560.966 306.046 550.405 298.167 538.09C302.025 519.446 306.475 493.974 307.106 475.095C320.234 498.83 334.372 520.881 355.093 538.769C358.989 542.131 363.932 546.693 368.998 548.055C369.603 548.217 370.181 548.259 370.803 548.301Z"/>
	<path fill="#75BD3D" transform="scale(2.13965 2.13965)" d="M746.548 548.88Q730.521 548.94 714.505 549.539C713.393 556.695 712.887 563.832 712.437 571.054C700.303 570.226 688.036 570.907 675.884 571.073Q647.979 571.507 620.07 571.497C622.869 566.534 625.388 561.528 627.155 556.094C630.289 546.461 631.631 536.223 633.529 526.291L642.789 478.486L760.772 478.516C758.433 488.029 757.114 497.902 755.025 507.491C752.006 521.354 748.204 534.743 746.548 548.88ZM702.813 497.137C693.471 498.662 686.125 503.023 680.524 510.736C675.411 517.777 671.876 527.766 673.459 536.508C674.176 540.467 676.085 544.075 679.455 546.383C682.14 548.223 685.9 549.497 689.176 549.389C700.494 545.638 709.166 539.546 714.687 528.7C718.078 522.04 719.825 513.668 717.505 506.384C716.456 503.09 714.387 500.309 711.215 498.814C708.794 497.673 705.491 496.834 702.813 497.137Z"/>
	<path fill="#355023" transform="scale(2.13965 2.13965)" d="M289.397 583.81C289.21 583.868 289.029 583.947 288.837 583.984C286.108 584.515 283.09 582.5 281.043 580.972C261.39 566.302 230.443 512.862 219.217 489.9C217.777 486.955 214.543 482.12 214.085 479.007L214.698 479.078C215.974 482.759 218.618 486.675 220.798 489.916C235.603 511.929 252.107 532.809 267.997 554.037C273.998 562.053 281.602 574.951 288.966 581.249C289.072 581.341 289.182 581.428 289.29 581.517C289.212 582.406 289.09 582.957 289.397 583.81Z"/>
	<path fill="#EE6557" transform="scale(2.13965 2.13965)" d="M509.42 493.556C509.196 492.549 508.915 491.308 509.25 490.291C509.457 489.665 509.942 488.978 510.529 488.662C512.689 487.5 515.415 488.38 517.658 488.886C515.176 490.885 514.091 492.63 512.869 495.529L509.42 493.556Z"/>
	<path fill="#DBAD55" transform="scale(2.13965 2.13965)" d="M522.375 489.927C524.761 489.219 527.025 488.958 529.487 488.738C531.557 490.465 532.594 492.017 532.798 494.768C533.19 500.058 527.031 523.244 523.763 526.282C522.853 527.128 521.41 527.562 520.262 527.991C516.256 527.299 513.596 526.646 510.307 524.049C510.936 523.299 510.664 523.544 511.34 523C512.395 522.153 513.157 521.627 513.742 520.352C513.471 518.815 511.812 517.521 510.734 516.429L512.226 515.127C514.183 513.439 516.911 512.349 518.459 510.394C518.028 508.314 515.929 507.859 515.348 505.534C515.664 503.97 516.422 503.351 517.533 502.308L517.976 501.9C517.271 500.359 516.846 499.067 516.644 497.377C516.625 497.219 516.61 497.061 516.593 496.902C518.265 494.161 520.096 492.158 522.375 489.927Z"/>
	<path fill="#ED7F28" transform="scale(2.13965 2.13965)" d="M509.42 493.556L512.869 495.529C510.471 498.996 506.896 503.199 502.49 503.896C501.786 504.008 501.069 503.946 500.364 503.907L499.799 501.817C501.915 501.19 504.326 500.496 506.154 499.232C508.3 497.749 508.924 496.026 509.42 493.556Z"/>
	<path fill="#F6F5F4" transform="scale(2.13965 2.13965)" d="M689.176 549.389C685.9 549.497 682.14 548.223 679.455 546.383C676.085 544.075 674.176 540.467 673.459 536.508C671.876 527.766 675.411 517.777 680.524 510.736C686.125 503.023 693.471 498.662 702.813 497.137C705.491 496.834 708.794 497.673 711.215 498.814C714.387 500.309 716.456 503.09 717.505 506.384C719.825 513.668 718.078 522.04 714.687 528.7C709.166 539.546 700.494 545.638 689.176 549.389ZM701.638 513.402C695.989 517.413 690.541 520.692 684.199 523.528C686.696 525.904 689.15 528.451 691.809 530.64C694.033 532.607 696.234 534.597 698.566 536.436C700.34 531.132 705.091 519.751 702.903 514.515C702.578 513.737 702.321 513.768 701.638 513.402Z"/>
	<path fill="#EE6557" transform="scale(2.13965 2.13965)" d="M494.189 497.021C495.976 498.82 497.634 500.456 499.799 501.817L500.364 503.907C498.996 504.485 498.862 504.486 498.103 505.743C498.293 508.561 501.293 510.722 503.229 512.544C501.507 516.998 499.231 521.048 501.305 525.812Q501.821 526.975 502.393 528.112C497.171 529.34 492.156 529.972 486.785 529.983C482.652 529.991 468.759 528.155 466.077 529.082C464.816 528.239 463.927 526.395 463.111 525.108C471.025 525.01 484.304 527.781 491.53 525.888C493.428 525.391 495.038 524.396 495.91 522.592C497.669 518.957 496.276 513.657 495.047 510.034C491.374 510.545 487.584 511.945 483.968 512.849C479.784 513.895 475.636 514.354 471.353 514.74C483.127 510.625 487.468 507.732 494.189 497.021Z"/>
	<path fill="#ED7F28" transform="scale(2.13965 2.13965)" d="M512.226 515.127C511.391 514.501 510.733 513.857 510.033 513.084C510.077 510.12 513.392 505.161 514.448 502.174C515.087 500.368 515.815 498.652 516.593 496.902C516.61 497.061 516.625 497.219 516.644 497.377C516.846 499.067 517.271 500.359 517.976 501.9L517.533 502.308C516.422 503.351 515.664 503.97 515.348 505.534C515.929 507.859 518.028 508.314 518.459 510.394C516.911 512.349 514.183 513.439 512.226 515.127Z"/>
	<path fill="#355023" transform="scale(2.13965 2.13965)" d="M179.096 497.374C187.983 523.545 209.058 552.37 225.902 574.121C235.495 586.508 253.423 610.147 267.557 616.687C272.34 618.901 277.373 619.265 282.518 619.918C279.634 628.586 280.549 652.966 277.125 658.468C276.757 657.092 276.356 656.033 275.269 655.063C271.763 651.937 267.03 649.486 263.108 646.858C255.205 641.564 247.164 635.506 240.492 628.734C207.19 594.931 178.552 546.005 179.096 497.374Z"/>
	<path fill="#F6F5F4" transform="scale(2.13965 2.13965)" d="M431.503 523.085C437.654 519.583 444.268 514.989 451.081 512.941C453.014 512.361 453.752 512.67 455.526 513.57C457.381 517.686 460.387 521.52 463.111 525.108C463.927 526.395 464.816 528.239 466.077 529.082C467.627 531.4 469.168 533.672 470.411 536.174C462.607 541.105 454.321 545.464 447.219 551.395C440.06 544.683 435.154 532.144 431.503 523.085Z"/>
	<path fill="#75BD3D" transform="scale(2.13965 2.13965)" d="M684.199 523.528C690.541 520.692 695.989 517.413 701.638 513.402C702.321 513.768 702.578 513.737 702.903 514.515C705.091 519.751 700.34 531.132 698.566 536.436C696.234 534.597 694.033 532.607 691.809 530.64C689.15 528.451 686.696 525.904 684.199 523.528Z"/>
	<path fill="#EE6557" transform="scale(2.13965 2.13965)" d="M506.79 521.088C507.969 519.44 509.394 517.947 510.734 516.429C511.812 517.521 513.471 518.815 513.742 520.352C513.157 521.627 512.395 522.153 511.34 523C510.664 523.544 510.936 523.299 510.307 524.049L507.906 527.438C507.465 525.334 507.137 523.21 506.79 521.088Z"/>
	<path fill="#ED7F28" transform="scale(2.13965 2.13965)" d="M507.906 527.438L510.307 524.049C513.596 526.646 516.256 527.299 520.262 527.991C517.397 529.068 512.924 530.507 509.894 529.548C508.563 529.126 508.54 528.614 507.906 527.438Z"/>
	<path fill="#75BD3D" fill-opacity="0.98823529" transform="scale(2.13965 2.13965)" d="M494.435 575.611C497.596 560.895 500.553 544.928 506.301 531.005C508.901 530.739 511.482 530.892 514.088 530.989C512.17 537.367 509.067 543.281 506.35 549.337L497.313 569.856C496.608 571.845 495.426 573.748 494.435 575.611Z"/>
	<path fill="#EE6557" transform="scale(2.13965 2.13965)" d="M746.548 548.88Q751.019 548.649 755.495 548.538Q775.692 548.663 795.888 548.521Q796.212 561.494 795.956 574.469L744.791 574.812C734.822 574.829 724.61 574.17 714.679 575.073L713.867 574.921C713.091 573.691 712.827 572.441 712.437 571.054C712.887 563.832 713.393 556.695 714.505 549.539Q730.521 548.94 746.548 548.88Z"/>
	<path fill="#752A24" transform="scale(2.13965 2.13965)" d="M795.888 548.521C810.564 548.568 825.312 548.299 839.978 548.7Q839.673 561.61 839.52 574.522C825.106 574.202 810.481 573.497 796.093 574.505L796.12 581.521L839.947 581.441Q840.108 595.343 839.877 609.243C839.72 611.29 839.554 613.32 839.556 615.375L767.638 615.586C756.245 615.592 744.177 616.436 732.884 615.423C739.955 614.401 747.802 615.184 754.951 615.191L796.011 615.077L795.921 581.506L744.719 581.882C734.843 581.886 724.962 581.45 715.089 581.592C715.068 579.409 714.862 577.246 714.679 575.073C724.61 574.17 734.822 574.829 744.791 574.812L795.956 574.469Q796.212 561.494 795.888 548.521Z"/>
	<defs>
		<linearGradient id="gradient_5" gradientUnits="userSpaceOnUse" x1="410.74469" y1="597.63525" x2="405.26151" y2="564.211">
			<stop offset="0" stop-color="#F69A28"/>
			<stop offset="1" stop-color="#F6D060"/>
		</linearGradient>
	</defs>
	<path fill="url(#gradient_5)" transform="scale(2.13965 2.13965)" d="M402.386 563.98Q408.288 563.711 414.185 564.071Q420.082 564.431 425.908 565.415C435.298 571.042 439.274 580.582 442.611 590.542C442.682 591.335 443.001 592.017 442.426 592.656C441.295 593.915 439.082 594.677 437.562 595.404C437.393 585.904 428.581 579.91 424.266 572.036C418.857 575.252 413.251 577.707 407.475 580.17C414.188 579.804 418.458 579.607 425.024 581.817L423.771 583.133C416.468 584.565 405.707 590.497 401.656 596.963C401.211 597.672 401.247 597.632 400.935 598.259C398.941 599.267 397.04 600.13 394.856 600.658C392.305 601.273 381.071 601.817 380.382 604.195C380.31 604.445 380.24 605.43 380.216 605.724C380.181 598.214 377.369 589.803 375.686 582.467C385.292 577.368 393.068 569.554 402.386 563.98Z"/>
	<path fill="#EE6557" transform="scale(2.13965 2.13965)" d="M425.024 581.817C418.458 579.607 414.188 579.804 407.475 580.17C413.251 577.707 418.857 575.252 424.266 572.036C428.581 579.91 437.393 585.904 437.562 595.404C435.639 594.87 434.087 594.315 432.098 594.736C431.406 593.644 430.897 592.397 430.335 591.231C429.731 589.049 429.17 586.765 428.172 584.724C427.387 583.119 426.711 582.383 425.024 581.817Z"/>
	<path fill="#F6F5F4" transform="scale(2.13965 2.13965)" d="M353.752 577.906L373.796 575.691L375.686 582.467C377.369 589.803 380.181 598.214 380.216 605.724C373.776 607.174 367.208 607.837 360.763 609.219C358.112 598.825 355.621 588.473 353.752 577.906Z"/>
	<path fill="#75BD3D" fill-opacity="0.98823529" transform="scale(2.13965 2.13965)" d="M480.069 578.709C487.112 576.637 534.051 575.403 539.405 578.068C539.893 578.31 540.014 578.427 540.496 578.764C540.072 579.027 539.986 579.113 539.437 579.268C534.05 580.784 483.49 580.768 480.069 578.709Z"/>
	<path fill="#355023" transform="scale(2.13965 2.13965)" d="M442.611 590.542L443.58 591.242C446.735 591.22 474.904 580.411 480.069 578.709C483.49 580.768 534.05 580.784 539.437 579.268C539.986 579.113 540.072 579.027 540.496 578.764C545.958 584.593 551.119 590.749 556.182 596.926C548.308 596.3 540.077 596.91 532.175 597.047L482.609 598.015Q466.174 598.104 449.739 598.014C443.874 597.966 437.704 597.367 431.896 598.077L432.098 594.736C434.087 594.315 435.639 594.87 437.562 595.404C439.082 594.677 441.295 593.915 442.426 592.656C443.001 592.017 442.682 591.335 442.611 590.542Z"/>
	<path fill="#DBAD55" transform="scale(2.13965 2.13965)" d="M425.024 581.817C426.711 582.383 427.387 583.119 428.172 584.724C429.17 586.765 429.731 589.049 430.335 591.231L427.297 594.578C426.869 590.229 425.785 586.993 423.771 583.133L425.024 581.817Z"/>
	<path fill="#EE6557" transform="scale(2.13965 2.13965)" d="M715.089 581.592C724.962 581.45 734.843 581.886 744.719 581.882L795.921 581.506L796.011 615.077L754.951 615.191C747.802 615.184 739.955 614.401 732.884 615.423Q724.426 615.52 715.968 615.416L715.447 614.734L715.286 591.941L715.089 581.592Z"/>
	<path fill="#EE6557" transform="scale(2.13965 2.13965)" d="M400.935 598.259C401.247 597.632 401.211 597.672 401.656 596.963C405.707 590.497 416.468 584.565 423.771 583.133C425.785 586.993 426.869 590.229 427.297 594.578L427.891 600.883C427.124 601.568 426.333 602.21 425.528 602.851L424.912 602.524L424.403 598.138C422.599 597.491 420.769 596.949 418.928 596.417C411.572 594.295 407.623 594.564 400.935 598.259Z"/>
	<path fill="#ED7F28" transform="scale(2.13965 2.13965)" d="M430.335 591.231C430.897 592.397 431.406 593.644 432.098 594.736L431.896 598.077L427.891 600.883L427.297 594.578L430.335 591.231Z"/>
	<path fill="#838D4E" transform="scale(2.13965 2.13965)" d="M663.782 592.101Q679.489 591.935 695.197 592.023L695.437 612.448C683.225 612.647 670.986 612.503 658.771 612.529C660.931 605.981 662.173 598.824 663.782 592.101Z"/>
	<path fill="#202000" transform="scale(2.13965 2.13965)" d="M839.556 615.375C839.554 613.32 839.72 611.29 839.877 609.243L840.013 618.06C852.116 618.101 865.006 617.309 877.021 618.403C859.24 619.426 840.604 618.535 822.737 618.518L716.087 618.339L715.968 615.416Q724.426 615.52 732.884 615.423C744.177 616.436 756.245 615.592 767.638 615.586L839.556 615.375Z"/>
	<path fill="#75BD3D" transform="scale(2.13965 2.13965)" d="M632.343 618.127C632.756 617.678 633.173 617.234 633.622 616.819C639.607 611.282 651.178 612.376 658.771 612.529C670.986 612.503 683.225 612.647 695.437 612.448C702.189 612.417 708.985 612.489 715.447 614.734L715.968 615.416L716.087 618.339L660.715 618.416C651.483 618.438 641.489 619.159 632.343 618.127Z"/>
	<path fill="#202000" transform="scale(2.13965 2.13965)" d="M282.518 619.918C295.992 620.563 310.341 617.818 323.627 615.703C328.465 614.933 333.534 613.764 338.418 613.569L338.121 614.284C339.087 614.467 339.826 614.424 340.788 614.337C342.111 614.217 342.738 614.363 343.94 614.89C344.468 615.589 344.935 616.259 345.356 617.028C351.682 618.274 358.306 617.294 364.725 617.905Q355.107 618.089 345.488 618.032L345.505 644.279C369.624 645.051 393.633 644.518 417.751 644.469Q463.246 644.76 508.74 644.41C511.545 655.703 512.784 671.487 517.803 681.594Q645.187 770.837 774.56 857.17Q805.131 877.54 835.999 897.46C848.436 905.428 860.961 913.996 874.313 920.341L874.746 920.319C872.581 923.191 869.344 951.519 868.891 956.561L582.302 956.555Q579.868 944.696 576.774 932.993L463.407 931.622C443.582 931.221 423.51 929.514 403.704 930.08C423.364 940.672 444.756 947.475 465.918 954.376C473.932 956.989 482.261 959.084 490.015 962.398C451.119 961.87 412.049 961.434 373.159 962.074C386.324 966.436 400.907 970.558 413.324 976.703C398.294 977.559 383.233 976.989 368.184 976.979L288.096 976.977C292.248 966.868 296.636 956.795 300.344 946.516C296.782 946.444 293.209 946.315 289.647 946.35Q289.127 940.126 288.217 933.947L292.488 931.446C295.918 933.729 325.267 934.093 331.995 934.634L331.872 940.709C342.53 946.808 353.61 952.175 364.565 957.716C368.608 948.938 371.916 939.916 375.254 930.852C383.704 932.071 393.668 930.134 402.226 929.556C406.096 912.871 410.77 896.519 415 879.939L439.451 783.937Q443.223 769.05 447.45 754.286C449.704 746.281 452.36 738.189 453.496 729.934C454.679 721.332 453.098 713.576 447.679 706.615C442.207 699.585 434.286 695.068 425.988 692.165C410.906 686.889 394.402 686.298 378.731 683.72C349.857 678.97 321.083 673.336 292.058 669.543C287.59 668.959 271.936 665.864 268.484 668.514L268.218 670.787C247.005 677.388 225.358 679.022 203.232 678.777C198.997 678.73 178.327 677.044 176.142 677.709L175.815 678.378C174.831 673.661 176.895 668.876 175.099 664.321C173.698 663.128 172.723 663.297 170.922 663.102C180.069 662.995 189.226 663.416 198.369 663.671C202.531 663.787 207.786 664.445 211.834 663.666C232.439 663.283 257.06 662.54 277.125 658.468C280.549 652.966 279.634 628.586 282.518 619.918Z"/>
	<path fill="#DBAD55" transform="scale(2.13965 2.13965)" d="M345.488 618.032Q355.107 618.089 364.725 617.905L563.896 618.32L610.227 618.471C616.644 618.499 626.28 619.619 632.343 618.127C641.489 619.159 651.483 618.438 660.715 618.416L716.087 618.339L822.737 618.518C840.604 618.535 859.24 619.426 877.021 618.403C896.561 618.441 916.141 618.215 935.675 618.638C935.736 627.304 935.58 636.031 935.93 644.687L927.409 644.515C916.636 643.753 905.384 644.527 894.55 644.445Q856.834 644.024 819.116 644.047L816.476 643.99L603.367 644.329L539.81 644C529.518 644.004 519.008 643.641 508.74 644.41Q463.246 644.76 417.751 644.469C393.633 644.518 369.624 645.051 345.505 644.279L345.488 618.032Z"/>
	<defs>
		<linearGradient id="gradient_6" gradientUnits="userSpaceOnUse" x1="709.54639" y1="853.41858" x2="718.15619" y2="636.77954">
			<stop offset="0" stop-color="#0E1C0C"/>
			<stop offset="1" stop-color="#3B6826"/>
		</linearGradient>
	</defs>
	<path fill="url(#gradient_6)" transform="scale(2.13965 2.13965)" d="M508.74 644.41C519.008 643.641 529.518 644.004 539.81 644L603.367 644.329L816.476 643.99C816.638 658.525 819.326 672.221 822.742 686.275C822.179 689.546 821.825 692.675 821.824 695.997C821.824 698.414 822.458 702.309 821.958 704.544C821.926 704.687 821.374 705.327 821.313 705.374C821.079 705.558 820.587 705.731 820.303 705.842L820.815 706.511Q804.599 706.533 788.384 706.384C781.089 706.269 773.48 705.575 766.238 706.435C763.866 706.716 761.538 707.005 759.721 708.704C758.751 709.61 758.125 710.671 757.837 711.952C757.713 725.053 754.981 784.88 758.696 792.947C761.851 800.458 765.964 807.253 771.776 813C778.857 813.891 786.294 813.503 793.416 813.434L827.038 813.08C846.183 812.979 865.704 814.332 884.777 812.936Q885.32 812.419 885.852 811.889C887.277 810.461 888.568 808.998 888.981 806.966C890.941 797.338 889.619 786.633 889.531 776.846Q889.082 747.622 889.086 718.396C884.853 716.724 880.716 715.016 876.14 714.604C875.921 712.592 875.877 709.86 874.38 708.297C870.729 704.485 837.105 706.361 830.204 706.598C828.701 694.664 825.133 683.227 822.722 671.481C820.857 662.391 820.08 653.256 819.116 644.047Q856.834 644.024 894.55 644.445C905.384 644.527 916.636 643.753 927.409 644.515Q913.694 716.283 898.457 787.743L890.006 829.696C888.757 836.15 888.086 843.639 886.092 849.836L885.31 850.286C884.513 850.754 883.902 851.277 883.207 851.878C880.956 853.823 879.571 853.411 876.801 853.169C859.713 851.675 842.051 853.287 824.891 853.728C810.976 854.086 793.553 853.581 779.955 855.165C778.097 855.381 776.498 855.604 774.99 856.799C774.842 856.917 774.703 857.047 774.56 857.17Q645.187 770.838 517.803 681.594C512.784 671.487 511.545 655.703 508.74 644.41Z"/>
	<path fill="#00376C" transform="scale(2.13965 2.13965)" d="M816.476 643.99L819.116 644.047C820.08 653.256 820.857 662.391 822.722 671.481C825.133 683.227 828.701 694.664 830.204 706.598L827.838 706.465C825.237 701.386 823.782 692.081 822.742 686.275C819.326 672.221 816.638 658.525 816.476 643.99Z"/>
	<path fill="#355023" transform="scale(2.13965 2.13965)" d="M160.286 646.326C162.418 645.815 164.628 645.209 166.836 645.328C174.306 645.733 193.8 652.596 200.145 656.788C203.93 659.288 203.249 660.722 208.485 660.421C210.337 661.339 210.137 662.943 211.834 663.666C207.786 664.445 202.531 663.787 198.369 663.671C189.226 663.416 180.069 662.995 170.922 663.102L165.071 662.83C163.077 657.45 161.728 651.872 160.286 646.326Z"/>
	<defs>
		<linearGradient id="gradient_7" gradientUnits="userSpaceOnUse" x1="412.20999" y1="681.81927" x2="285.05096" y2="874.60785">
			<stop offset="0" stop-color="#2E403E"/>
			<stop offset="1" stop-color="#3C3E3B"/>
		</linearGradient>
	</defs>
	<path fill="url(#gradient_7)" transform="scale(2.13965 2.13965)" d="M268.218 670.787L268.484 668.514C271.936 665.864 287.59 668.959 292.058 669.543C321.083 673.336 349.857 678.97 378.731 683.72C394.402 686.298 410.906 686.889 425.988 692.165C434.286 695.068 442.207 699.585 447.679 706.615C453.098 713.576 454.679 721.332 453.496 729.934C452.36 738.189 449.704 746.281 447.45 754.286Q443.223 769.05 439.451 783.937L415 879.939C410.77 896.519 406.096 912.871 402.226 929.556C393.668 930.134 383.704 932.071 375.254 930.852C372.03 929.34 368.45 929.126 364.953 928.861C364.95 925.055 364.826 921.143 365.8 917.44C367.255 913.168 371.444 843.642 370.724 839.436C375.919 824.934 382.252 810.236 388.602 796.198C395.323 781.337 404.666 764.017 407.508 748.037C409.238 738.311 407.636 728.339 401.842 720.213C398.622 715.698 394.49 712.517 389.581 710.019C377.899 704.074 364.686 701.178 352.326 696.941C324.658 687.458 297.236 675.486 268.218 670.787Z"/>
	<defs>
		<linearGradient id="gradient_8" gradientUnits="userSpaceOnUse" x1="253.33998" y1="795.27869" x2="323.87735" y2="672.93542">
			<stop offset="0" stop-color="#7E8573"/>
			<stop offset="1" stop-color="#AAA"/>
		</linearGradient>
	</defs>
	<path fill="url(#gradient_8)" transform="scale(2.13965 2.13965)" d="M175.815 678.378L176.142 677.709C178.327 677.044 198.997 678.73 203.232 678.777C225.358 679.022 247.005 677.388 268.218 670.787C297.236 675.486 324.658 687.458 352.326 696.941C364.686 701.178 377.899 704.074 389.581 710.019C394.49 712.517 398.622 715.698 401.842 720.213C407.636 728.339 409.238 738.311 407.508 748.037C404.666 764.017 395.323 781.337 388.602 796.198C382.252 810.236 375.919 824.934 370.724 839.436L363.605 856.729C362.65 857.027 362.445 857.342 361.508 856.893C360.329 855.251 336.198 841.851 331.975 839.643C328.462 837.806 324.473 836.363 321.125 834.295C319.629 833.37 319.372 830.26 319.078 828.632C320.764 818.787 323.307 808.965 325.603 799.243C327.788 789.991 329.782 780.617 332.385 771.477Q334.681 760.483 337.45 749.598C324.41 748.818 310.37 747.68 297.603 744.892C286.537 742.287 274.786 741.405 263.552 739.536C250.043 737.29 190.979 726.233 183.288 719.289C176.826 713.457 176.045 687.483 175.815 678.378Z"/>
	<path fill="#10260C" transform="scale(2.13965 2.13965)" d="M822.742 686.275C823.782 692.081 825.237 701.386 827.838 706.465L820.815 706.511L820.303 705.842C820.587 705.731 821.079 705.558 821.313 705.374C821.374 705.327 821.926 704.687 821.958 704.544C822.458 702.309 821.824 698.414 821.824 695.997C821.825 692.675 822.179 689.546 822.742 686.275Z"/>
	<path fill="#75BD3D" transform="scale(2.13965 2.13965)" d="M757.837 711.952C758.125 710.671 758.751 709.61 759.721 708.704C761.538 707.005 763.866 706.716 766.238 706.435C773.48 705.575 781.089 706.269 788.384 706.384Q804.599 706.533 820.815 706.511L827.838 706.465L830.204 706.598C837.105 706.361 870.729 704.485 874.38 708.297C875.877 709.86 875.921 712.592 876.14 714.604L876.017 715.536C868.209 717.331 849.122 733.588 841.247 739.008C833.877 744.08 826.242 748.788 818.784 753.733C804.27 743.71 777.682 719.546 762.02 715.234C760.481 714.361 759.173 713.106 757.837 711.952Z"/>
	<path fill="#838D4E" transform="scale(2.13965 2.13965)" d="M757.837 711.952C759.173 713.106 760.481 714.361 762.02 715.234C763.676 717.749 765.798 719.341 768.106 721.209C769.675 725.639 789.374 737.337 793.955 743.737C783.856 749.587 773.082 758.595 765.99 767.889C765.946 770.96 765.487 774.594 766.86 777.428C764.176 781.522 769.174 790.077 764.105 793.213L758.696 792.947C754.981 784.88 757.713 725.053 757.837 711.952Z"/>
	<path fill="#202000" transform="scale(2.13965 2.13965)" d="M876.14 714.604C880.716 715.016 884.853 716.724 889.086 718.396Q889.082 747.623 889.531 776.846C889.619 786.633 890.941 797.338 888.981 806.966C888.568 808.998 887.277 810.461 885.852 811.889Q885.32 812.419 884.777 812.936C865.704 814.332 846.183 812.979 827.038 813.08L793.416 813.434C786.294 813.503 778.857 813.891 771.776 813C765.964 807.253 761.851 800.458 758.696 792.947L764.105 793.213C764.287 793.268 764.466 793.336 764.651 793.377C772.171 795.048 796.014 794.352 804.561 794.359L844.001 794.115C851.743 794.06 859.692 794.352 867.407 793.792C869.567 793.636 872.122 793.619 873.857 792.186C876.841 789.72 876.08 783.286 876.037 779.897C875.616 761.824 876.031 743.647 875.958 725.563L875.998 718.44L876.017 715.536L876.14 714.604Z"/>
	<path fill="#F6F5F4" transform="scale(2.13965 2.13965)" d="M762.02 715.234C777.682 719.546 804.27 743.71 818.784 753.733C826.242 748.788 833.877 744.08 841.247 739.008C849.122 733.588 868.209 717.331 876.017 715.536L875.998 718.44L819.29 760.162C801.771 747.955 785.308 733.919 768.106 721.209C765.798 719.341 763.676 717.749 762.02 715.234Z"/>
	<path fill="#355023" transform="scale(2.13965 2.13965)" d="M819.29 760.162L875.998 718.44L875.958 725.563C867.605 729.079 851.763 744.233 843.739 750.469L841.472 750.062L841.035 750.662L841.43 752.244C840.465 754.906 825.299 766.295 822.392 768.652C813.246 762.322 803.36 755.791 796.454 746.952L793.955 743.737C789.374 737.337 769.675 725.639 768.106 721.209C785.308 733.919 801.771 747.955 819.29 760.162Z"/>
	<path fill="#838D4E" transform="scale(2.13965 2.13965)" d="M843.739 750.469C851.763 744.233 867.605 729.079 875.958 725.563C876.031 743.647 875.616 761.824 876.037 779.897C874.744 780.564 873.432 781.253 872.076 781.783C870.596 782.362 869.055 782.499 867.483 782.561C849.993 783.252 832.287 782.277 814.784 782.107C806.861 782.031 773.828 783.452 769.049 781.408C767.883 780.274 767.567 779.669 767.106 778.109Q768.127 778.144 769.14 778.006C775.204 777.168 791.933 752.975 796.454 746.952C803.36 755.791 813.246 762.322 822.392 768.652C825.299 766.295 840.465 754.906 841.43 752.244C845.623 755.397 854.85 770.351 860.615 775.537C861.799 776.602 862.652 777.21 864.256 777.098C865.009 776.424 865.583 775.857 866.103 774.978C867.13 773.242 868.017 771.583 867.394 769.554C865.925 764.772 848.541 753.102 843.739 750.469Z"/>
	<path fill="#F6F5F4" transform="scale(2.13965 2.13965)" d="M765.99 767.889C773.082 758.595 783.856 749.587 793.955 743.737L796.454 746.952C791.933 752.975 775.204 777.168 769.14 778.006Q768.127 778.144 767.106 778.109L766.86 777.428C765.487 774.594 765.946 770.96 765.99 767.889Z"/>
	<path fill="#F6F5F4" transform="scale(2.13965 2.13965)" d="M841.43 752.244L841.035 750.662L841.472 750.062L843.739 750.469C848.541 753.102 865.925 764.772 867.394 769.554C868.017 771.583 867.13 773.242 866.103 774.978C865.583 775.857 865.009 776.424 864.256 777.098C862.652 777.21 861.799 776.602 860.615 775.537C854.85 770.351 845.623 755.397 841.43 752.244Z"/>
	<path fill="#355023" transform="scale(2.13965 2.13965)" d="M764.105 793.213C769.174 790.077 764.176 781.522 766.86 777.428L767.106 778.109C767.567 779.669 767.883 780.274 769.049 781.408C773.828 783.452 806.861 782.031 814.784 782.107C832.287 782.277 849.993 783.252 867.483 782.561C869.055 782.499 870.596 782.362 872.076 781.783C873.432 781.253 874.744 780.564 876.037 779.897C876.08 783.286 876.841 789.72 873.857 792.186C872.122 793.619 869.567 793.636 867.407 793.792C859.692 794.352 851.743 794.06 844.001 794.115L804.561 794.359C796.014 794.352 772.171 795.048 764.651 793.377C764.466 793.336 764.287 793.268 764.105 793.213Z"/>
	<path fill="#914B21" transform="scale(2.13965 2.13965)" d="M246.002 888.825C267.602 892.391 279.923 896.082 300.24 904.687L299.279 908.528C279.328 897.92 259.376 892.944 236.89 891.529Q237.675 900.818 238.136 910.129C237.902 911.874 238.032 912.272 236.765 913.571C234.327 914.557 231.401 914.123 228.809 914.037C227.982 911.103 227.322 908.245 226.844 905.234C227.089 902.204 228.208 896.05 225.794 893.646C222.999 890.864 215.544 892.124 211.97 892.672C198.516 894.735 173.6 901.102 164.303 911.023Q162.585 916.995 160.779 922.941L158.017 923.629C158.084 922.482 158.253 921.493 157.655 920.454L156.535 920.257L158.246 920.032C160.674 917.911 160.202 911.029 162.392 907.878C164.145 905.356 167.779 904.135 170.474 902.843C186.118 895.345 201.859 891.703 218.854 888.661C218.391 877.649 218.844 866.533 218.902 855.509L218.756 815.238Q232.363 815.014 245.971 815.109C246.318 839.673 245.847 864.254 246.002 888.825Z"/>
	<defs>
		<linearGradient id="gradient_9" gradientUnits="userSpaceOnUse" x1="313.79465" y1="942.24969" x2="362.85529" y2="855.92377">
			<stop offset="0" stop-color="#506C39"/>
			<stop offset="1" stop-color="#7E8574"/>
		</linearGradient>
	</defs>
	<path fill="url(#gradient_9)" transform="scale(2.13965 2.13965)" d="M300.24 904.687C307.495 879.629 312.993 853.994 319.078 828.632C319.372 830.26 319.629 833.37 321.125 834.295C324.473 836.363 328.462 837.806 331.975 839.643C336.198 841.851 360.329 855.251 361.508 856.893C362.445 857.342 362.65 857.027 363.605 856.729C355.726 876.753 347.293 896.675 340.182 916.976C348.725 916.982 357.271 916.885 365.8 917.44C364.826 921.143 364.95 925.055 364.953 928.861C368.45 929.126 372.03 929.34 375.254 930.852C371.916 939.916 368.608 948.938 364.565 957.716C353.61 952.175 342.53 946.808 331.872 940.709L331.995 934.634C325.267 934.093 295.918 933.729 292.488 931.446C293.963 928.171 294.79 924.504 295.775 921.048L296.275 918.967C297.472 915.586 298.305 911.985 299.279 908.528L300.24 904.687Z"/>
	<path fill="#202000" transform="scale(2.13965 2.13965)" d="M370.724 839.436C371.444 843.642 367.255 913.168 365.8 917.44C357.271 916.885 348.725 916.982 340.182 916.976C347.293 896.675 355.726 876.753 363.605 856.729L370.724 839.436Z"/>
	<defs>
		<linearGradient id="gradient_10" gradientUnits="userSpaceOnUse" x1="831.83856" y1="919.15271" x2="829.95874" y2="852.0274">
			<stop offset="0" stop-color="#05373B"/>
			<stop offset="1" stop-color="#0F1E0C"/>
		</linearGradient>
	</defs>
	<path fill="url(#gradient_10)" transform="scale(2.13965 2.13965)" d="M774.56 857.17C774.703 857.047 774.842 856.917 774.99 856.799C776.498 855.604 778.097 855.381 779.955 855.165C793.553 853.581 810.976 854.086 824.891 853.728C842.051 853.287 859.713 851.675 876.801 853.169C879.571 853.411 880.956 853.823 883.207 851.878C883.902 851.277 884.513 850.754 885.31 850.286L886.092 849.836L877.56 897.47C876.314 904.676 874.217 913.05 874.313 920.341C860.961 913.996 848.436 905.428 835.999 897.46Q805.131 877.54 774.56 857.17Z"/>
	<path fill="#752A24" transform="scale(2.13965 2.13965)" d="M236.89 891.529C259.376 892.944 279.328 897.92 299.279 908.528C298.305 911.985 297.472 915.586 296.275 918.967C282.729 911.011 265.707 907.911 250.28 905.93C246.615 905.46 242.632 904.671 238.97 905.327C238.165 906.325 238.259 908.788 238.136 910.129Q237.675 900.818 236.89 891.529Z"/>
	<path fill="#752A24" transform="scale(2.13965 2.13965)" d="M226.844 905.234C217.723 901.848 184.311 912.151 175.453 916.215C170.935 918.288 166.097 920.546 163.068 924.634L160.779 922.941Q162.585 916.995 164.303 911.023C173.6 901.102 198.516 894.735 211.97 892.672C215.544 892.124 222.999 890.864 225.794 893.646C228.208 896.05 227.089 902.204 226.844 905.234Z"/>
	<path fill="#202000" transform="scale(2.13965 2.13965)" d="M163.068 924.634C166.097 920.546 170.935 918.288 175.453 916.215C184.311 912.151 217.723 901.848 226.844 905.234C227.322 908.245 227.982 911.103 228.809 914.037C231.401 914.123 234.327 914.557 236.765 913.571C238.032 912.272 237.902 911.874 238.136 910.129C238.259 908.788 238.165 906.325 238.97 905.327C242.632 904.671 246.615 905.46 250.28 905.93C265.707 907.911 282.729 911.011 296.275 918.967L295.775 921.048C293.937 920.023 292.151 918.969 290.395 917.808L289.811 918.299L289.818 918.072C290.284 922.223 289.276 924.531 287.534 928.208C283.95 924.687 279.258 922.999 274.538 921.549C258.422 916.598 245.934 917.253 229.525 917.4C219.05 917.495 171.043 917.894 165.453 923.335C164.506 924.256 164.187 925.135 164.221 926.433C164.415 933.818 174.293 940.725 167.227 949.239C165.18 951.705 162.348 953.256 159.144 953.531C155.015 953.886 150.672 952.275 147.629 949.501C145.389 947.459 143.765 944.647 143.639 941.568C143.525 938.756 144.581 936.083 146.485 934.027C148.897 931.423 152.318 929.658 155.676 928.645C158.093 930.584 161.313 931.089 164.254 931.786C164.013 929.391 163.495 927.003 163.068 924.634Z"/>
	<path fill="#752A24" transform="scale(2.13965 2.13965)" d="M287.534 928.208C289.276 924.531 290.284 922.223 289.818 918.072L289.811 918.299L290.395 917.808C292.151 918.969 293.937 920.023 295.775 921.048C294.79 924.504 293.963 928.171 292.488 931.446L288.217 933.947C287.77 932.008 287.626 930.193 287.534 928.208Z"/>
	<defs>
		<linearGradient id="gradient_11" gradientUnits="userSpaceOnUse" x1="507.22131" y1="900.63763" x2="513.63977" y2="1012.1343">
			<stop offset="0" stop-color="#405933"/>
			<stop offset="1" stop-color="#639D33"/>
		</linearGradient>
	</defs>
	<path fill="url(#gradient_11)" transform="scale(2.13965 2.13965)" d="M561.559 1007.55C551.085 1008.6 540.214 1008.1 529.69 1008.09Q502.84 1008.32 475.997 1007.68Q357.28 1005.84 238.953 996.042C185.6 991.452 130.85 986.561 79.2082 971.754C68.8311 968.778 55.9812 965.805 47.63 958.685C45.9102 957.218 44.5706 955.627 44.4779 953.274C44.407 951.475 45.6811 949.66 46.8349 948.402C60.6517 933.341 134.684 921.389 156.535 920.257L157.655 920.454C158.253 921.493 158.084 922.482 158.017 923.629C156.965 925.246 156.528 926.958 155.676 928.645C152.318 929.658 148.897 931.423 146.485 934.027C144.581 936.083 143.525 938.756 143.639 941.568C143.765 944.647 145.389 947.459 147.629 949.501C150.672 952.275 155.015 953.886 159.144 953.531C162.348 953.256 165.18 951.705 167.227 949.239C174.293 940.725 164.415 933.818 164.221 926.433C164.187 925.135 164.506 924.256 165.453 923.335C171.043 917.894 219.05 917.495 229.525 917.4C245.934 917.253 258.422 916.598 274.538 921.549C279.258 922.999 283.95 924.687 287.534 928.208C287.626 930.193 287.77 932.008 288.217 933.947Q289.127 940.126 289.647 946.35C293.209 946.315 296.782 946.444 300.344 946.516C296.636 956.795 292.248 966.868 288.096 976.977L368.184 976.979C383.233 976.989 398.294 977.559 413.324 976.703C400.907 970.558 386.324 966.436 373.159 962.074C412.049 961.434 451.119 961.87 490.015 962.398C482.261 959.084 473.932 956.989 465.918 954.376C444.756 947.475 423.364 940.672 403.704 930.08C423.51 929.514 443.582 931.221 463.407 931.622L576.774 932.993Q579.868 944.696 582.302 956.555L868.891 956.561C869.344 951.519 872.581 923.191 874.746 920.319C893.397 923.879 965.426 936.634 975.095 950.082C976.234 951.665 976.654 953.34 976.182 955.26C975.228 959.146 970.144 961.868 966.83 963.52C944.305 974.747 913.103 977.598 888.287 981.13C849.536 986.644 810.787 990.59 771.87 994.603C759.573 995.871 747.378 997.873 735.101 999.281C709.949 1002.17 680.889 1004.38 655.562 1004.53L657.296 1003.58L657.321 1002.69C655.974 1001.5 654.327 1001.29 652.603 1001.04C639.82 999.152 626.377 999.401 613.475 998.797C607.264 998.506 600.7 997.319 594.523 997.697C585.45 998.252 570.145 1001.03 562.488 1005.99L561.559 1007.55Z"/>
	<path fill="#DBAD55" transform="scale(2.13965 2.13965)" d="M158.017 923.629L160.779 922.941L163.068 924.634C163.495 927.003 164.013 929.391 164.254 931.786C161.313 931.089 158.093 930.584 155.676 928.645C156.528 926.958 156.965 925.246 158.017 923.629Z"/>
	<path fill="#75BD3D" transform="scale(2.13965 2.13965)" d="M655.562 1004.53C624.265 1005.16 592.852 1007.61 561.559 1007.55L562.488 1005.99C570.145 1001.03 585.45 998.252 594.523 997.697C600.7 997.319 607.264 998.506 613.475 998.797C626.377 999.401 639.82 999.152 652.603 1001.04C654.327 1001.29 655.974 1001.5 657.321 1002.69L657.296 1003.58L655.562 1004.53Z"/>
</svg>
